<svg width="1040" height="158" viewBox="0 0 1040 158" fill="none" xmlns="http://www.w3.org/2000/svg">
<path d="M158.19 2.641L120.557 156H68.1321L47.0316 62.0268L25.4961 156H0V107.5L23.9734 2.641H70.7424L94.2357 106.621L112.073 2.641H158.19Z" fill="#FFF0E8"/>
<path d="M218.918 36.7933V61.8093H267.862V94.2213H218.918V121.848H274.388V156H176.282V2.641H274.388V36.7933H218.918Z" fill="#FFF0E8"/>
<path d="M338.093 123.37H385.732V156H295.457V2.641H338.093V123.37Z" fill="#FFF0E8"/>
<path d="M397.089 78.9942C397.089 63.9121 400.207 50.4977 406.443 38.7511C412.824 26.8594 421.815 17.6506 433.417 11.1247C445.018 4.45376 458.36 1.11829 473.442 1.11829C492.585 1.11829 508.682 6.26651 521.734 16.563C534.786 26.7144 543.197 40.5638 546.968 58.1113H501.069C498.313 52.3105 494.47 47.8873 489.54 44.8419C484.754 41.7965 479.171 40.2738 472.79 40.2738C462.928 40.2738 455.025 43.8268 449.079 50.9328C443.278 57.8937 440.378 67.2476 440.378 78.9942C440.378 90.8859 443.278 100.385 449.079 107.491C455.025 114.452 462.928 117.932 472.79 117.932C479.171 117.932 484.754 116.409 489.54 113.364C494.47 110.319 498.313 105.895 501.069 100.095H546.968C543.197 117.642 534.786 131.564 521.734 141.861C508.682 152.012 492.585 157.088 473.442 157.088C458.36 157.088 445.018 153.825 433.417 147.299C421.815 140.628 412.824 131.419 406.443 119.672C400.207 107.781 397.089 94.2214 397.089 78.9942Z" fill="#FFF0E8"/>
<path d="M640.683 157.523C626.326 157.523 613.129 154.187 601.092 147.516C589.055 140.7 579.484 131.347 572.378 119.455C565.417 107.418 561.937 93.8588 561.937 78.7767C561.937 63.6946 565.417 50.2077 572.378 38.316C579.484 26.2793 589.055 16.9255 601.092 10.2546C613.129 3.58363 626.326 0.248169 640.683 0.248169C655.185 0.248169 668.381 3.58363 680.273 10.2546C692.31 16.9255 701.809 26.2793 708.77 38.316C715.731 50.2077 719.211 63.6946 719.211 78.7767C719.211 93.8588 715.731 107.418 708.77 119.455C701.809 131.347 692.31 140.7 680.273 147.516C668.236 154.187 655.04 157.523 640.683 157.523ZM640.683 117.932C651.559 117.932 660.115 114.379 666.351 107.273C672.732 100.167 675.922 90.6683 675.922 78.7767C675.922 66.595 672.732 57.0236 666.351 50.0627C660.115 42.9567 651.559 39.4037 640.683 39.4037C629.661 39.4037 621.032 42.9567 614.796 50.0627C608.561 57.0236 605.443 66.595 605.443 78.7767C605.443 90.8134 608.561 100.385 614.796 107.491C621.032 114.452 629.661 117.932 640.683 117.932Z" fill="#FFF0E8"/>
<path d="M917.405 2.641V156H874.769V71.3806L845.838 156H810.163L781.013 70.7281V156H738.378V2.641H789.932L828.435 102.27L866.068 2.641H917.405Z" fill="#FFF0E8"/>
<path d="M984.311 36.7933V61.8093H1033.26V94.2213H984.311V121.848H1039.78V156H941.675V2.641H1039.78V36.7933H984.311Z" fill="#FFF0E8"/>
</svg>
